<?xml version="1.0" encoding="UTF-8"?>
<!DOCTYPE svg PUBLIC "-//W3C//DTD SVG 1.1//EN" "http://www.w3.org/Graphics/SVG/1.1/DTD/svg11.dtd">
<svg xmlns="http://www.w3.org/2000/svg" version="1.1" width="538px" height="538px" style="shape-rendering:geometricPrecision; text-rendering:geometricPrecision; image-rendering:optimizeQuality; fill-rule:evenodd; clip-rule:evenodd" xmlns:xlink="http://www.w3.org/1999/xlink">
<g><path style="opacity:1" fill="#f1f4f1" d="M -0.5,-0.5 C 178.833,-0.5 358.167,-0.5 537.5,-0.5C 537.5,178.833 537.5,358.167 537.5,537.5C 358.167,537.5 178.833,537.5 -0.5,537.5C -0.5,358.167 -0.5,178.833 -0.5,-0.5 Z"/></g>
<g><path style="opacity:1" fill="#688e37" d="M 196.5,31.5 C 223.819,28.892 233.652,40.5587 226,66.5C 209.581,97.7923 183.747,114.626 148.5,117C 94.2832,164.622 71.7832,224.455 81,296.5C 93.3181,361.674 128.818,409.508 187.5,440C 210.567,451.147 234.9,457.481 260.5,459C 270.123,462.073 273.623,468.573 271,478.5C 268.685,482.817 265.185,485.65 260.5,487C 194.873,483.103 141.039,455.936 99,405.5C 49.4632,339.919 37.4632,267.919 63,189.5C 77.1974,152.109 99.5307,120.442 130,94.5C 132.457,81.586 138.124,70.2527 147,60.5C 160.947,46.3679 177.447,36.7012 196.5,31.5 Z"/></g>
<g><path style="opacity:1" fill="#688e37" d="M 307.5,45.5 C 346.121,50.2017 380.788,64.3684 411.5,88C 481.358,146.218 508.525,220.384 493,310.5C 481.844,359.646 457.344,400.812 419.5,434C 420.953,437.072 422.787,439.905 425,442.5C 425.837,446.295 425.504,449.961 424,453.5C 398.89,473.642 374.057,494.142 349.5,515C 339.265,519.969 334.432,516.803 335,505.5C 348.354,493.979 361.854,482.645 375.5,471.5C 376.047,469.288 375.047,467.621 372.5,466.5C 358.689,477.143 345.023,487.976 331.5,499C 321.43,500.267 317.93,496.101 321,486.5C 333.543,475.622 346.376,465.122 359.5,455C 361.007,454.163 361.507,452.996 361,451.5C 359.887,449.671 358.387,448.837 356.5,449C 343.016,460.24 329.35,471.24 315.5,482C 306.996,482.22 303.83,478.053 306,469.5C 331.517,447.653 357.35,426.153 383.5,405C 390.454,402.47 395.787,404.47 399.5,411C 406.079,407.454 411.912,402.62 417,396.5C 461.756,345.448 477.423,286.448 464,219.5C 445.998,153.173 405.164,107.339 341.5,82C 328.871,78.2074 316.204,74.5408 303.5,71C 297.992,64.7661 297.159,57.9328 301,50.5C 303.326,48.9343 305.492,47.2676 307.5,45.5 Z"/></g>
<g><path style="opacity:1" fill="#da6740" d="M 257.5,113.5 C 319.514,110.118 367.014,134.451 400,186.5C 422.441,229.506 424.441,273.506 406,318.5C 374.882,379.157 325.049,407.323 256.5,403C 198.871,393.365 159.038,361.532 137,307.5C 118.303,245.448 132.47,192.281 179.5,148C 202.269,129.114 228.269,117.614 257.5,113.5 Z"/></g>
<g><path style="opacity:1" fill="#f1f0ec" d="M 262.5,145.5 C 312.009,143.828 349.175,164.161 374,206.5C 390.774,241.938 390.441,277.272 373,312.5C 347.866,354.488 310.699,373.988 261.5,371C 215.465,363.96 183.965,338.793 167,295.5C 151.518,236.568 169.351,191.068 220.5,159C 233.942,152.315 247.942,147.815 262.5,145.5 Z"/></g>
<g><path style="opacity:1" fill="#da673f" d="M 260.5,155.5 C 313.117,152.877 349.95,175.543 371,223.5C 385.256,274.405 371.09,315.238 328.5,346C 294.934,365.107 260.601,366.44 225.5,350C 179.838,321.72 163.004,281.22 175,228.5C 189.847,188.152 218.347,163.819 260.5,155.5 Z"/></g>
<g><path style="opacity:1" fill="#f1eee9" d="M 185.5,275.5 C 184.167,275.5 182.833,275.5 181.5,275.5C 181.5,263.833 181.5,252.167 181.5,240.5C 187.653,239.347 193.986,239.18 200.5,240C 208.285,243.328 211.118,249.161 209,257.5C 208.361,260.112 207.194,262.446 205.5,264.5C 206.74,268.056 208.073,271.556 209.5,275C 207.167,275.667 204.833,275.667 202.5,275C 201.407,272.557 200.407,270.057 199.5,267.5C 195.893,266.511 192.226,266.177 188.5,266.5C 188.5,269.5 188.5,272.5 188.5,275.5C 187.5,275.5 186.5,275.5 185.5,275.5 Z"/></g>
<g><path style="opacity:1" fill="#f1efeb" d="M 233.5,275.5 C 227.5,275.5 221.5,275.5 215.5,275.5C 215.5,263.833 215.5,252.167 215.5,240.5C 222.313,239.509 229.313,239.175 236.5,239.5C 236.5,241.833 236.5,244.167 236.5,246.5C 231.833,246.5 227.167,246.5 222.5,246.5C 222.5,249.167 222.5,251.833 222.5,254.5C 225.167,254.5 227.833,254.5 230.5,254.5C 230.5,256.5 230.5,258.5 230.5,260.5C 227.833,260.5 225.167,260.5 222.5,260.5C 222.5,263.167 222.5,265.833 222.5,268.5C 227.167,268.5 231.833,268.5 236.5,268.5C 236.5,270.833 236.5,273.167 236.5,275.5C 235.5,275.5 234.5,275.5 233.5,275.5 Z"/></g>
<g><path style="opacity:1" fill="#f1efeb" d="M 246.5,275.5 C 245.167,275.5 243.833,275.5 242.5,275.5C 242.5,263.833 242.5,252.167 242.5,240.5C 245.024,239.2 247.691,239.2 250.5,240.5C 252.447,246.009 254.78,251.342 257.5,256.5C 260.22,251.342 262.553,246.009 264.5,240.5C 267.086,239.52 269.753,239.187 272.5,239.5C 272.5,251.5 272.5,263.5 272.5,275.5C 270.167,275.5 267.833,275.5 265.5,275.5C 265.666,269.491 265.499,263.491 265,257.5C 263.931,260.208 262.764,262.875 261.5,265.5C 258.833,266.833 256.167,266.833 253.5,265.5C 252.236,262.875 251.069,260.208 250,257.5C 249.501,263.491 249.334,269.491 249.5,275.5C 248.5,275.5 247.5,275.5 246.5,275.5 Z"/></g>
<g><path style="opacity:1" fill="#f1efea" d="M 282.5,275.5 C 281.167,275.5 279.833,275.5 278.5,275.5C 278.5,263.833 278.5,252.167 278.5,240.5C 284.653,239.347 290.986,239.18 297.5,240C 305.806,243.454 308.639,249.62 306,258.5C 304.73,262.77 301.896,265.27 297.5,266C 293.514,266.499 289.514,266.666 285.5,266.5C 285.5,269.5 285.5,272.5 285.5,275.5C 284.5,275.5 283.5,275.5 282.5,275.5 Z"/></g>
<g><path style="opacity:1" fill="#f1f3ef" d="M 312.5,240.5 C 314.5,240.5 316.5,240.5 318.5,240.5C 318.173,250.015 318.506,259.348 319.5,268.5C 323.634,269.485 327.968,269.818 332.5,269.5C 332.5,271.5 332.5,273.5 332.5,275.5C 325.833,275.5 319.167,275.5 312.5,275.5C 312.5,263.833 312.5,252.167 312.5,240.5 Z"/></g>
<g><path style="opacity:1" fill="#ecd4c8" d="M 312.5,240.5 C 314.607,239.532 316.941,239.198 319.5,239.5C 319.5,249.167 319.5,258.833 319.5,268.5C 318.506,259.348 318.173,250.015 318.5,240.5C 316.5,240.5 314.5,240.5 312.5,240.5 Z"/></g>
<g><path style="opacity:1" fill="#f1efea" d="M 339.5,239.5 C 345.842,239.334 352.175,239.5 358.5,240C 366.499,243.167 369.333,249.001 367,257.5C 366.361,260.112 365.194,262.446 363.5,264.5C 365.029,267.754 366.362,271.087 367.5,274.5C 365.167,275.833 362.833,275.833 360.5,274.5C 359.695,272.085 358.695,269.751 357.5,267.5C 353.893,266.511 350.226,266.177 346.5,266.5C 346.5,269.5 346.5,272.5 346.5,275.5C 344.167,275.5 341.833,275.5 339.5,275.5C 339.5,263.5 339.5,251.5 339.5,239.5 Z"/></g>
<g><path style="opacity:1" fill="#e37d53" d="M 181.5,240.5 C 181.5,252.167 181.5,263.833 181.5,275.5C 182.833,275.5 184.167,275.5 185.5,275.5C 183.735,276.461 181.735,276.795 179.5,276.5C 179.333,264.829 179.5,253.162 180,241.5C 180.383,240.944 180.883,240.611 181.5,240.5 Z"/></g>
<g><path style="opacity:1" fill="#e2774b" d="M 215.5,240.5 C 215.5,252.167 215.5,263.833 215.5,275.5C 221.5,275.5 227.5,275.5 233.5,275.5C 226.687,276.491 219.687,276.825 212.5,276.5C 212.5,264.5 212.5,252.5 212.5,240.5C 213.5,240.5 214.5,240.5 215.5,240.5 Z"/></g>
<g><path style="opacity:1" fill="#e1774b" d="M 242.5,240.5 C 242.5,252.167 242.5,263.833 242.5,275.5C 243.833,275.5 245.167,275.5 246.5,275.5C 244.393,276.468 242.059,276.802 239.5,276.5C 239.5,264.5 239.5,252.5 239.5,240.5C 240.5,240.5 241.5,240.5 242.5,240.5 Z"/></g>
<g><path style="opacity:1" fill="#e1774b" d="M 278.5,240.5 C 278.5,252.167 278.5,263.833 278.5,275.5C 279.833,275.5 281.167,275.5 282.5,275.5C 280.393,276.468 278.059,276.802 275.5,276.5C 275.5,264.5 275.5,252.5 275.5,240.5C 276.5,240.5 277.5,240.5 278.5,240.5 Z"/></g>
<g><path style="opacity:1" fill="#db6b42" d="M 188.5,246.5 C 192.182,246.335 195.848,246.501 199.5,247C 203.107,250.616 203.441,254.616 200.5,259C 196.514,259.499 192.514,259.666 188.5,259.5C 188.5,255.167 188.5,250.833 188.5,246.5 Z"/></g>
<g><path style="opacity:1" fill="#dc6b42" d="M 285.5,246.5 C 289.514,246.334 293.514,246.501 297.5,247C 299.028,248.648 299.695,250.648 299.5,253C 299.695,255.352 299.028,257.352 297.5,259C 293.514,259.499 289.514,259.666 285.5,259.5C 285.5,255.167 285.5,250.833 285.5,246.5 Z"/></g>
<g><path style="opacity:1" fill="#db6b42" d="M 346.5,246.5 C 350.514,246.334 354.514,246.501 358.5,247C 360.028,248.648 360.695,250.648 360.5,253C 360.695,255.352 360.028,257.352 358.5,259C 354.514,259.499 350.514,259.666 346.5,259.5C 346.5,255.167 346.5,250.833 346.5,246.5 Z"/></g>
<g><path style="opacity:1" fill="#eac8b9" d="M 319.5,268.5 C 324.167,268.5 328.833,268.5 333.5,268.5C 333.802,271.059 333.468,273.393 332.5,275.5C 332.5,273.5 332.5,271.5 332.5,269.5C 327.968,269.818 323.634,269.485 319.5,268.5 Z"/></g>
</svg>
